<?xml version="1.0" encoding="UTF-8"?>
<svg version="1.1" xmlns="http://www.w3.org/2000/svg" width="470" height="244">
<path d="M0 0 C1.16402344 -0.02449219 2.32804687 -0.04898438 3.52734375 -0.07421875 C15.82494685 -0.11553209 24.6103934 3.20658499 33.75 11.375 C34.69166016 12.17744141 34.69166016 12.17744141 35.65234375 12.99609375 C40.76125145 17.65783229 43.71142907 23.21994606 46.75 29.375 C47.46542969 29.32859375 48.18085938 29.2821875 48.91796875 29.234375 C57.22304856 28.93354417 64.00154397 30.44508316 71.75 33.375 C72.49121094 33.65214844 73.23242188 33.92929687 73.99609375 34.21484375 C85.32391311 39.16079305 94.75541495 50.27020094 99.75 61.375 C104.89679159 75.46203515 103.96788104 90.4839187 98.75 104.375 C97.79531265 105.74114415 96.79146591 107.07379804 95.75 108.375 C94.88181641 110.00501953 94.88181641 110.00501953 93.99609375 111.66796875 C91.57416721 115.97911305 88.32245089 119.24412352 84.8125 122.6875 C84.20470703 123.30689453 83.59691406 123.92628906 82.97070312 124.56445312 C79.7803578 127.73414897 77.19004653 130.11965478 72.75 131.375 C72.75 132.035 72.75 132.695 72.75 133.375 C71.1 133.705 69.45 134.035 67.75 134.375 C67.75 135.035 67.75 135.695 67.75 136.375 C62.38123661 136.57384309 57.68182227 136.07642826 52.4375 134.94921875 C24.9362902 129.07323352 -3.26385432 130.11186207 -29.7890625 139.60546875 C-32.25 140.375 -32.25 140.375 -35.25 140.375 C-35.25 141.035 -35.25 141.695 -35.25 142.375 C-35.85585937 142.65472656 -36.46171875 142.93445313 -37.0859375 143.22265625 C-46.14007796 147.55471423 -54.07274826 152.64988091 -60.875 160.08984375 C-62.25 161.375 -62.25 161.375 -64.25 161.375 C-63.35488082 152.95357258 -60.15496462 147.1814487 -55.25 140.375 C-54.528125 139.34375 -53.80625 138.3125 -53.0625 137.25 C-36.14586198 118.25970958 -9.29522641 113.01332739 14.20703125 107.265625 C31.07152709 103.3189028 31.07152709 103.3189028 44.75 93.375 C46.07094909 90.72938357 46.07094909 90.72938357 47 87.875 C47.33515625 86.9365625 47.6703125 85.998125 48.015625 85.03125 C48.92764933 82.19175483 48.92764933 82.19175483 48.75 78.375 C49.74 78.375 50.73 78.375 51.75 78.375 C54.86129644 88.76356607 55.83913122 96.5882092 50.75 106.375 C49.77882859 107.40302047 48.78406036 108.41026212 47.75 109.375 C50.704388 110.71432256 53.54795869 111.80808121 56.75 112.375 C60.41951704 110.68137675 62.53112234 108.59387766 65.375 105.75 C67.75 103.375 67.75 103.375 69.9375 102.4375 C72.75381104 100.78655904 72.86813236 98.43214114 73.75 95.375 C74.5234375 94.01375 74.5234375 94.01375 75.3125 92.625 C78.03595242 86.46762932 78.50204838 79.84757933 76.5390625 73.3828125 C72.96185177 64.28040501 67.92716242 58.60980718 59.1105957 54.26879883 C54.78542126 52.63114616 50.33166435 52.42833778 45.75 52.125 C44.78449219 52.04765625 43.81898438 51.9703125 42.82421875 51.890625 C40.4668631 51.70390376 38.10946466 51.53238295 35.75 51.375 C35.49532959 50.77461914 35.24065918 50.17423828 34.97827148 49.55566406 C31.48743988 41.48571636 27.16212368 35.4405224 20.75 29.375 C20.29753906 28.87871094 19.84507812 28.38242187 19.37890625 27.87109375 C14.37450639 23.27472649 7.13230371 21.64027872 0.5625 21.125 C-8.63421375 21.7280632 -16.21609663 24.84409015 -22.4375 31.75 C-27.97221732 38.61074334 -29.47256716 45.87861891 -31.25 54.375 C-30.57195312 54.52195313 -29.89390625 54.66890625 -29.1953125 54.8203125 C-19.01650408 57.27337713 -11.27978867 61.60523357 -4.25 69.375 C-4.58 70.035 -4.91 70.695 -5.25 71.375 C-5.78367187 71.18164062 -6.31734375 70.98828125 -6.8671875 70.7890625 C-25.30436631 64.34561939 -44.7096034 64.28758884 -62.8515625 71.8828125 C-71.13757866 76.05492837 -79.04495775 81.56743663 -84.25 89.375 C-84.91 89.375 -85.57 89.375 -86.25 89.375 C-86.53101562 89.95507812 -86.81203125 90.53515625 -87.1015625 91.1328125 C-88.25 93.375 -88.25 93.375 -89.3984375 95.2421875 C-96.70051334 107.19526706 -99.48803871 120.97306953 -96.33203125 134.68359375 C-94.1567615 143.08183384 -91.10887596 150.15080612 -86.25 157.375 C-85.5623998 158.69765951 -84.88867386 160.02803381 -84.25 161.375 C-89.78278558 160.03371865 -93.03421365 155.82335 -96.25 151.375 C-96.25 150.715 -96.25 150.055 -96.25 149.375 C-96.8275 149.189375 -97.405 149.00375 -98 148.8125 C-101.29563569 146.70695498 -102.5715404 143.78920451 -104.25 140.375 C-104.76175781 139.33859375 -105.27351563 138.3021875 -105.80078125 137.234375 C-110.06499366 128.31921971 -111.43019245 121.34730926 -111.4375 111.5625 C-111.44974609 110.71107422 -111.46199219 109.85964844 -111.47460938 108.98242188 C-111.49489872 100.10245148 -109.87353716 92.91644048 -105.75 85.0625 C-105.44191406 84.46888672 -105.13382812 83.87527344 -104.81640625 83.26367188 C-103.96793683 81.63045928 -103.10935762 80.00250983 -102.25 78.375 C-101.57903575 77.04382413 -100.91005792 75.71161728 -100.25 74.375 C-99.59 74.375 -98.93 74.375 -98.25 74.375 C-98.04375 73.818125 -97.8375 73.26125 -97.625 72.6875 C-96.28153247 70.42803189 -95.19842298 69.3751344 -93.1875 67.75 C-90.24175287 65.70380603 -90.24175287 65.70380603 -89.25 63.375 C-87.27966574 62.31774747 -85.27156704 61.33064988 -83.25 60.375 C-81.6103125 59.446875 -81.6103125 59.446875 -79.9375 58.5 C-70.68407986 53.89115368 -59.60732932 50.43342461 -49.25 51.375 C-49.29640625 50.82714844 -49.3428125 50.27929688 -49.390625 49.71484375 C-49.95844352 37.24311547 -46.41784961 25.81229045 -38.25 16.375 C-37.62996094 15.65699219 -37.00992188 14.93898438 -36.37109375 14.19921875 C-25.7987132 2.8579378 -15.01306284 0.01640772 0 0 Z " fill="#FFFFFF" transform="translate(111.25,-0.375)"/>
<path d="M0 0 C1.9296875 0.96875 1.9296875 0.96875 3.75 2.125 C4.8225 2.74375 5.895 3.3625 7 4 C9.33664149 3.45782232 9.33664149 3.45782232 11 2 C13.80497823 0.59751088 16.18501365 0.83020944 19.3125 0.8125 C20.44300781 0.79832031 21.57351562 0.78414062 22.73828125 0.76953125 C25.93204843 0.99519863 28.1276429 1.63657346 31 3 C31 3.66 31 4.32 31 5 C31.680625 5.0825 32.36125 5.165 33.0625 5.25 C37.96671513 6.50214003 41.91541027 9.23174894 46 12.125 C53.12688469 16.57930293 60.79266395 16.53100937 69 17 C67.63561174 20.32929951 66.46883173 21.70947455 63.203125 23.22265625 C57.145711 25.69331612 51.20592247 25.54930648 44.75 25.4375 C43.61175781 25.44458984 42.47351563 25.45167969 41.30078125 25.45898438 C31.41801078 25.3860695 21.43555892 24.56381711 13.0625 18.9375 C9.60166517 17.03234988 8.46709708 16.87066648 4.5859375 17.9453125 C2.21936296 18.99430807 -0.11716039 20.11505836 -2.41015625 21.31640625 C-10.85674053 25.27775318 -19.28313485 25.36486043 -28.5 25.375 C-29.67175781 25.39949219 -30.84351563 25.42398438 -32.05078125 25.44921875 C-40.82377887 25.47875746 -46.7404867 23.83967553 -54 19 C-54 18.34 -54 17.68 -54 17 C-52.906875 17.04125 -51.81375 17.0825 -50.6875 17.125 C-42.85172131 17.0833941 -35.81463257 16.09095313 -29.3046875 11.56640625 C-26.23618369 9.48086383 -23.03230456 7.65060202 -19.8125 5.8125 C-19.21783936 5.46751465 -18.62317871 5.1225293 -18.01049805 4.76708984 C-12.11176334 1.38716697 -6.94827655 -1.16244931 0 0 Z " fill="#FFFFFF" transform="translate(99,219)"/>
<path d="M0 0 C1.05579254 -0.0066568 2.11158508 -0.0133136 3.19937134 -0.02017212 C5.4299344 -0.03026256 7.66052742 -0.03499026 9.89111328 -0.03466797 C13.24434607 -0.03900467 16.59622148 -0.07526317 19.94921875 -0.11328125 C32.83315297 -0.17943844 44.50033491 0.86065972 56.9140625 4.3359375 C58.24638601 4.67328444 59.57910771 5.00915838 60.9140625 5.3359375 C61.26074471 11.69177809 60.15362005 16.4131342 57.9140625 22.3359375 C57.04442871 22.0567749 57.04442871 22.0567749 56.15722656 21.77197266 C49.3966682 19.66546048 42.60155952 18.1122773 35.6640625 16.7109375 C34.61476563 16.494375 33.56546875 16.2778125 32.484375 16.0546875 C14.02356742 12.26905354 -5.80554068 10.95789903 -24.0859375 16.3359375 C-26.18962056 16.81722292 -28.29378315 17.29641746 -30.3984375 17.7734375 C-40.01745264 20.25125514 -51.75306088 24.84032051 -58.75 32.05078125 C-60.0859375 33.3359375 -60.0859375 33.3359375 -63.0859375 33.3359375 C-57.30772426 19.67834257 -42.01200163 10.94407114 -29.0859375 5.3359375 C-25.7882982 4.15412457 -22.48167455 3.19007995 -19.0859375 2.3359375 C-17.94205566 1.99965332 -16.79817383 1.66336914 -15.61962891 1.31689453 C-10.42596129 0.02670475 -5.32828885 0.01190733 0 0 Z " fill="#FFFFFF" transform="translate(112.0859375,142.6640625)"/>
<path d="M0 0 C2.32755386 0.94554051 3.71381277 1.53398835 5.04907227 3.70825195 C5.30229248 4.37816162 5.5555127 5.04807129 5.81640625 5.73828125 C6.10580078 6.47626953 6.39519531 7.21425781 6.69335938 7.97460938 C6.98017578 8.74611328 7.26699219 9.51761719 7.5625 10.3125 C9.4086823 15.13877258 11.2094993 19.62180063 14 24 C14.69822617 25.65369357 15.37498605 27.31727014 16 29 C18.31 29.33 20.62 29.66 23 30 C23 21.09 23 12.18 23 3 C21.68 2.67 20.36 2.34 19 2 C19 1.34 19 0.68 19 0 C23.62 0 28.24 0 33 0 C33 0.66 33 1.32 33 2 C33.66 2 34.32 2 35 2 C36.33203125 3.5390625 36.33203125 3.5390625 37.8125 5.625 C40.41229586 9.21489011 43.12989032 12.62340038 46 16 C46.495 9.565 46.495 9.565 47 3 C45.68 2.67 44.36 2.34 43 2 C43 1.34 43 0.68 43 0 C46.3 0 49.6 0 53 0 C52.34 1.32 51.68 2.64 51 4 C50.63348459 7.19441452 50.63348459 7.19441452 50.5859375 10.734375 C50.54726563 12.02988281 50.50859375 13.32539062 50.46875 14.66015625 C50.43729733 16.02343284 50.40604993 17.38671418 50.375 18.75 C50.33679531 20.12893028 50.29774213 21.50783734 50.2578125 22.88671875 C50.16351996 26.25767718 50.0779178 29.62862978 50 33 C45.2265625 32.2421875 45.2265625 32.2421875 43.1875 30.0625 C42 28 42 28 42 26 C41.34 26 40.68 26 40 26 C38.39018828 24.09480998 36.90496732 22.19744338 35.4375 20.1875 C35.02564453 19.64029297 34.61378906 19.09308594 34.18945312 18.52929688 C32.33850981 16.03006899 30.99012572 13.97037715 30 11 C29.34 11 28.68 11 28 11 C28 10.01 28 9.02 28 8 C27.34 8 26.68 8 26 8 C26.495 18.395 26.495 18.395 27 29 C28.32 29.66 29.64 30.32 31 31 C31 31.66 31 32.32 31 33 C21.43 33 11.86 33 2 33 C2 32.01 2 31.02 2 30 C2.99 30 3.98 30 5 30 C5 28.02 5 26.04 5 24 C1.04 24 -2.92 24 -7 24 C-7 25.65 -7 27.3 -7 29 C-6.01 29.66 -5.02 30.32 -4 31 C-4 31.66 -4 32.32 -4 33 C-7.96 33 -11.92 33 -16 33 C-16 32.01 -16 31.02 -16 30 C-14.68 30 -13.36 30 -12 30 C-11.83129395 29.47212891 -11.66258789 28.94425781 -11.48876953 28.40039062 C-9.51329748 22.33541431 -7.25700985 16.41576073 -4.875 10.5 C-4.51535156 9.59507813 -4.15570313 8.69015625 -3.78515625 7.7578125 C-3.26888672 6.47003906 -3.26888672 6.47003906 -2.7421875 5.15625 C-2.27594971 3.99319336 -2.27594971 3.99319336 -1.80029297 2.80664062 C-1 1 -1 1 0 0 Z M-2 12 C-4.35910353 16.2637281 -4.35910353 16.2637281 -5 21 C-2.69 21 -0.38 21 2 21 C1.30058404 17.85262818 0.23921302 14.97411124 -1 12 C-1.33 12 -1.66 12 -2 12 Z " fill="#FFFFFF" transform="translate(417,87)"/>
<path d="M0 0 C11.22 0 22.44 0 34 0 C34 0.66 34 1.32 34 2 C33.34 2.33 32.68 2.66 32 3 C33.30954476 7.23083691 34.83854716 11.127397 37 15 C37.66 15.33 38.32 15.66 39 16 C39.103125 15.46375 39.20625 14.9275 39.3125 14.375 C40 12 40 12 41.5625 9 C43.28808012 5.95322612 43.28808012 5.95322612 43 2 C42.34 2 41.68 2 41 2 C41 1.34 41 0.68 41 0 C44.63 0 48.26 0 52 0 C52 0.66 52 1.32 52 2 C50.948125 2.9590625 50.948125 2.9590625 49.875 3.9375 C44.2877453 9.39668009 40.64379897 16.21282431 40.4375 24.0625 C40.40354824 26.72107111 40.40354824 26.72107111 41 29 C41.99 29.66 42.98 30.32 44 31 C44 31.66 44 32.32 44 33 C38.39 33 32.78 33 27 33 C27 32.01 27 31.02 27 30 C28.32 30 29.64 30 31 30 C31.15548555 18.51628171 26.01542846 11.64152115 19 3 C17.35 3.33 15.7 3.66 14 4 C14 12.25 14 20.5 14 29 C15.32 29.66 16.64 30.32 18 31 C17.67 31.66 17.34 32.32 17 33 C11.39 33 5.78 33 0 33 C0 32.01 0 31.02 0 30 C0.99 29.67 1.98 29.34 3 29 C3.33 20.42 3.66 11.84 4 3 C2.68 2.67 1.36 2.34 0 2 C0 1.34 0 0.68 0 0 Z " fill="#FFFFFF" transform="translate(355,87)"/>
<path d="M0 0 C5.61 0 11.22 0 17 0 C17 0.66 17 1.32 17 2 C15.02 2.99 15.02 2.99 13 4 C13 7.63 13 11.26 13 15 C13.928125 14.01 13.928125 14.01 14.875 13 C17 11 17 11 19 11 C19 10.34 19 9.68 19 9 C20.62553283 7.29319053 22.29115995 5.62339805 24 4 C23.34 2.68 22.68 1.36 22 0 C26.29 0 30.58 0 35 0 C35 0.66 35 1.32 35 2 C33.35546875 3.18359375 33.35546875 3.18359375 31.1875 4.4375 C28.40578131 6.05383563 26.18823319 7.63229027 24 10 C25.17275885 13.96933765 26.51770999 16.72789044 29 20 C29 20.99 29 21.98 29 23 C29.66 23 30.32 23 31 23 C31.66 24.98 32.32 26.96 33 29 C34.65 29.33 36.3 29.66 38 30 C38 30.99 38 31.98 38 33 C32.06 33 26.12 33 20 33 C20.33 32.01 20.66 31.02 21 30 C21.66 29.67 22.32 29.34 23 29 C22.566875 28.38511719 22.13375 27.77023438 21.6875 27.13671875 C21.130625 26.32847656 20.57375 25.52023438 20 24.6875 C19.443125 23.88699219 18.88625 23.08648437 18.3125 22.26171875 C17 20 17 20 17 17 C14.82271927 17.87644433 14.82271927 17.87644433 13 20 C12.63524155 23.02534949 12.77106703 25.96663814 13 29 C14.32 29.33 15.64 29.66 17 30 C17 30.99 17 31.98 17 33 C11.06 33 5.12 33 -1 33 C-0.67 32.01 -0.34 31.02 0 30 C0.66 30 1.32 30 2 30 C2.33 21.09 2.66 12.18 3 3 C2.01 2.67 1.02 2.34 0 2 C0 1.34 0 0.68 0 0 Z " fill="#FFFFFF" transform="translate(316,87)"/>
<path d="M0 0 C5.28 0 10.56 0 16 0 C16 0.66 16 1.32 16 2 C15.01 2.66 14.02 3.32 13 4 C12.63539547 6.66653905 12.63539547 6.66653905 12.8125 9.625 C12.874375 11.39875 12.93625 13.1725 13 15 C16.63 11.37 20.26 7.74 24 4 C23.34 2.68 22.68 1.36 22 0 C26.29 0 30.58 0 35 0 C35 0.66 35 1.32 35 2 C33.3203125 3.2890625 33.3203125 3.2890625 31.125 4.625 C30.40570313 5.07101563 29.68640625 5.51703125 28.9453125 5.9765625 C27 7 27 7 25 7 C23.82260196 10.90847598 23.82616574 13.24567606 25.6953125 16.796875 C26.48758593 18.12525346 27.29810612 19.44289135 28.125 20.75 C28.516875 21.42160156 28.90875 22.09320313 29.3125 22.78515625 C31.69312216 26.66728192 33.36787923 28.84609091 38 30 C38 30.99 38 31.98 38 33 C32.06 33 26.12 33 20 33 C20.33 32.01 20.66 31.02 21 30 C21.66 30 22.32 30 23 30 C19.535 24.06 19.535 24.06 16 18 C15.01 18.66 14.02 19.32 13 20 C12.63637182 22.20725073 12.63637182 22.20725073 12.8125 24.625 C12.83957031 25.44226563 12.86664063 26.25953125 12.89453125 27.1015625 C12.92933594 27.72804688 12.96414063 28.35453125 13 29 C13.99 29.33 14.98 29.66 16 30 C16 30.99 16 31.98 16 33 C10.39 33 4.78 33 -1 33 C-0.67 32.01 -0.34 31.02 0 30 C0.66 29.67 1.32 29.34 2 29 C2.0580772 24.91672643 2.09362249 20.83355917 2.125 16.75 C2.14175781 15.59113281 2.15851563 14.43226562 2.17578125 13.23828125 C2.18222656 12.12324219 2.18867188 11.00820312 2.1953125 9.859375 C2.20578613 8.83295898 2.21625977 7.80654297 2.22705078 6.74902344 C2.14424533 3.66836895 2.14424533 3.66836895 0 0 Z " fill="#FFFFFF" transform="translate(247,87)"/>
<path d="M0 0 C4.98908706 1.80317191 7.83792999 5.73702156 10.1875 10.3125 C11.69275775 15.29142948 11.51772782 19.38422329 9.4375 24.125 C7.07166777 28.31823367 4.58750558 31.28859895 0 33 C-6.77363528 33.86862894 -12.28957564 34.03616381 -18 30 C-22.77895791 26.04029201 -23.79683949 22.13318535 -24.375 16.0625 C-24.24197214 11.42426191 -22.67861399 8.76453857 -20 5 C-13.69067153 -0.70844004 -8.33037493 -0.73980215 0 0 Z M-8 2 C-8.804375 2.804375 -9.60875 3.60875 -10.4375 4.4375 C-11.625 5.625 -12.8125 6.8125 -14 8 C-14.18100353 10.7654966 -14.27818821 13.48218201 -14.3125 16.25 C-14.34150391 17.01441406 -14.37050781 17.77882813 -14.40039062 18.56640625 C-14.44467322 22.51096367 -14.27029047 24.54696966 -12.203125 28.01171875 C-10.04231072 30.32558944 -10.04231072 30.32558944 -6.4375 30.5625 C-2.98846531 30.33329652 -2.98846531 30.33329652 -1.125 28.1875 C2.27376412 21.57879199 2.00753267 13.3024682 -0.125 6.3125 C-2.47032061 3.41993791 -4.41230903 2.79726466 -8 2 Z " fill="#FFFFFF" transform="translate(305,87)"/>
<path d="M0 0 C3.59414691 2.20242837 6.9960237 4.71768588 9.640625 8.0234375 C9.640625 9.0134375 9.640625 10.0034375 9.640625 11.0234375 C8.42375 10.6934375 7.206875 10.3634375 5.953125 10.0234375 C-4.53915392 7.77391917 -12.89127922 8.61179038 -22.6796875 13.02734375 C-25.359375 14.0234375 -25.359375 14.0234375 -28.359375 13.0234375 C-22.11230805 2.65596469 -12.93238634 -5.35280891 0 0 Z " fill="#FFFFFF" transform="translate(83.359375,178.9765625)"/>
<path d="M0 0 C3.90754473 2.48086923 6.63042913 4.96683897 9.125 8.875 C8.9375 11.25 8.9375 11.25 8.125 12.875 C3.125 10.875 3.125 10.875 1 9.84765625 C-2.89398058 8.53026336 -6.60148335 8.37307466 -10.6875 8.1875 C-11.45642578 8.14044922 -12.22535156 8.09339844 -13.01757812 8.04492188 C-18.10945475 7.78280839 -22.83400576 8.11051627 -27.875 8.875 C-25.52815496 3.82025684 -23.46424516 0.48800449 -18.0234375 -1.578125 C-11.71423778 -3.18410311 -5.82141698 -3.00773211 0 0 Z " fill="#FFFFFF" transform="translate(147.875,180.125)"/>
<path d="M0 0 C2.86036419 -0.54772931 4.24011671 -0.76496765 7 0 C10.33482154 2.70690419 13.17521896 5.77167881 16 9 C16 7.35 16 5.7 16 4 C15.34 3.67 14.68 3.34 14 3 C14 2.01 14 1.02 14 0 C16.97 0 19.94 0 23 0 C22.67 0.99 22.34 1.98 22 3 C21.34 3 20.68 3 20 3 C20 8.94 20 14.88 20 21 C15.38824 19.84706 13.70843124 17.88183637 10.75 14.4375 C10.29109375 13.91736328 9.8321875 13.39722656 9.359375 12.86132812 C8.2317857 11.58104445 7.11482685 10.29141202 6 9 C6 11.64 6 14.28 6 17 C6.66 17.33 7.32 17.66 8 18 C8 18.99 8 19.98 8 21 C5.36 21 2.72 21 0 21 C0 20.01 0 19.02 0 18 C0.66 18 1.32 18 2 18 C2 13.05 2 8.1 2 3 C1.34 3 0.68 3 0 3 C0 2.01 0 1.02 0 0 Z " fill="#FFFFFF" transform="translate(401,136)"/>
<path d="M0 0 C5.94 0 11.88 0 18 0 C18 1.98 18 3.96 18 6 C17.01 5.67 16.02 5.34 15 5 C15 4.34 15 3.68 15 3 C13.02 3 11.04 3 9 3 C9 4.98 9 6.96 9 9 C10.32 8.67 11.64 8.34 13 8 C13 7.34 13 6.68 13 6 C13.66 6 14.32 6 15 6 C15 8.64 15 11.28 15 14 C14.34 14 13.68 14 13 14 C12.34 13.34 11.68 12.68 11 12 C10.67 12 10.34 12 10 12 C9.67 13.98 9.34 15.96 9 18 C11.94091587 17.81584568 11.94091587 17.81584568 15 17 C16.43637698 15.04836882 16.43637698 15.04836882 17 13 C17.99 13 18.98 13 20 13 C20 15.64 20 18.28 20 21 C13.4 21 6.8 21 0 21 C0 20.01 0 19.02 0 18 C0.99 18 1.98 18 3 18 C3 13.05 3 8.1 3 3 C2.01 3 1.02 3 0 3 C0 2.01 0 1.02 0 0 Z " fill="#FFFFFF" transform="translate(434,136)"/>
<path d="M0 0 C0 2.64 0 5.28 0 8 C-0.99 8 -1.98 8 -3 8 C-3 7.01 -3 6.02 -3 5 C-3.66 5 -4.32 5 -5 5 C-5 4.34 -5 3.68 -5 3 C-6.98 3.33 -8.96 3.66 -11 4 C-11.59332061 8.37573952 -12.13827236 12.57528444 -12 17 C-8.62599422 17.41725678 -8.62599422 17.41725678 -5 17 C-3.1375562 14.59141286 -3.1375562 14.59141286 -2 12 C-1.34 12 -0.68 12 0 12 C0 14.97 0 17.94 0 21 C-12.57424249 21.76568459 -12.57424249 21.76568459 -17.375 19.1875 C-19.80574067 14.41950868 -19.91049384 10.23533959 -19 5 C-15.2847531 -2.28759968 -7.10399447 -0.43258424 0 0 Z " fill="#FFFFFF" transform="translate(282,136)"/>
<path d="M0 0 C3.63 0 7.26 0 11 0 C11 0.99 11 1.98 11 3 C10.34 3 9.68 3 9 3 C9.14029419 5.1462026 9.28738164 7.29196218 9.4375 9.4375 C9.51871094 10.63246094 9.59992188 11.82742187 9.68359375 13.05859375 C9.67656114 15.88570244 9.67656114 15.88570244 11 17 C13.5 17.16666667 13.5 17.16666667 16 17 C17.31262571 15.91447634 17.31262571 15.91447634 17.09765625 13.27734375 C17.08605469 12.17519531 17.07445312 11.07304687 17.0625 9.9375 C17.05347656 8.83277344 17.04445313 7.72804687 17.03515625 6.58984375 C17.02355469 5.73519531 17.01195312 4.88054687 17 4 C16.34 3.67 15.68 3.34 15 3 C15 2.01 15 1.02 15 0 C17.64 0 20.28 0 23 0 C23 0.99 23 1.98 23 3 C22.01 3.495 22.01 3.495 21 4 C20.6811466 7.56204793 20.61980879 11.10482884 20.5390625 14.6796875 C20 18 20 18 18.2109375 19.92578125 C14.07996088 21.9328812 9.86075795 21.62025265 5.5625 20.1875 C4 19 4 19 3 16 C2.93062938 13.77181559 2.91542916 11.54165476 2.9375 9.3125 C2.94652344 8.13300781 2.95554687 6.95351562 2.96484375 5.73828125 C2.97644531 4.83464844 2.98804688 3.93101562 3 3 C2.01 3 1.02 3 0 3 C0 2.01 0 1.02 0 0 Z " fill="#FFFFFF" transform="translate(294,136)"/>
<path d="M0 0 C0.90105469 0.01804688 1.80210937 0.03609375 2.73046875 0.0546875 C3.41753906 0.07789063 4.10460937 0.10109375 4.8125 0.125 C4.8125 2.435 4.8125 4.745 4.8125 7.125 C4.1525 7.125 3.4925 7.125 2.8125 7.125 C2.1525 6.135 1.4925 5.145 0.8125 4.125 C-1.75032742 3.39534634 -1.75032742 3.39534634 -4.1875 3.125 C-1.56268523 6.04146086 1.54103238 7.99143416 4.8125 10.125 C6.70378342 12.01628342 6.0491852 14.69567726 6.140625 17.21484375 C6.03234375 17.84519531 5.9240625 18.47554687 5.8125 19.125 C2.11844568 21.58770288 0.17972928 21.35485417 -4.1875 21.125 C-6.625 20.625 -6.625 20.625 -8.1875 20.125 C-8.1875 17.815 -8.1875 15.505 -8.1875 13.125 C-5.1875 14.125 -5.1875 14.125 -3.1875 17.125 C-1.12824861 17.84882467 -1.12824861 17.84882467 0.8125 18.125 C0.08981765 14.8264861 0.08981765 14.8264861 -3.25 13.4375 C-4.7040625 12.7878125 -4.7040625 12.7878125 -6.1875 12.125 C-6.1875 11.465 -6.1875 10.805 -6.1875 10.125 C-6.8475 10.125 -7.5075 10.125 -8.1875 10.125 C-8.48046875 4.0703125 -8.48046875 4.0703125 -8.1875 2.125 C-4.87379 -0.08414 -3.8428979 -0.09981553 0 0 Z " fill="#FFFFFF" transform="translate(360.1875,135.875)"/>
<path d="M0 0 C3.96 0 7.92 0 12 0 C12 0.99 12 1.98 12 3 C11.01 3 10.02 3 9 3 C9 7.95 9 12.9 9 18 C9.99 18 10.98 18 12 18 C12 18.99 12 19.98 12 21 C8.04 21 4.08 21 0 21 C0 20.01 0 19.02 0 18 C0.99 18 1.98 18 3 18 C3 13.05 3 8.1 3 3 C2.01 3 1.02 3 0 3 C0 2.01 0 1.02 0 0 Z " fill="#FFFFFF" transform="translate(328,136)"/>
<path d="M0 0 C3.63 0 7.26 0 11 0 C11 0.99 11 1.98 11 3 C10.34 3 9.68 3 9 3 C9 7.95 9 12.9 9 18 C9.66 18 10.32 18 11 18 C11 18.99 11 19.98 11 21 C7.37 21 3.74 21 0 21 C0 20.01 0 19.02 0 18 C0.66 17.67 1.32 17.34 2 17 C2.47001033 13.72444392 2.47001033 13.72444392 2.625 9.9375 C2.69976562 8.64714844 2.77453125 7.35679687 2.8515625 6.02734375 C2.90054687 5.02832031 2.94953125 4.02929688 3 3 C2.01 3 1.02 3 0 3 C0 2.01 0 1.02 0 0 Z " fill="#FFFFFF" transform="translate(378,136)"/>
</svg>
