<?xml version="1.0" encoding="utf-8"?>
<!-- Generator: Adobe Illustrator 26.5.0, SVG Export Plug-In . SVG Version: 6.00 Build 0)  -->
<svg version="1.1" id="Layer_1" xmlns="http://www.w3.org/2000/svg" xmlns:xlink="http://www.w3.org/1999/xlink" x="0px" y="0px"
	 viewBox="0 0 1000 1000" style="enable-background:new 0 0 1000 1000;" xml:space="preserve">
<style type="text/css">
	.st0{fill:#006838;}
</style>
<path class="st0" d="M534,690.6L534,690.6c-7.8,17.2-12.9,35.9-14.9,55.5l164.4-35c7.8-17.2,12.9-35.9,14.9-55.5L534,690.6
	L534,690.6z"/>
<path class="st0" d="M683.5,606.5c7.8-17.2,12.9-35.9,14.9-55.5l-128.1,27.2v-52.4l113.2-24.1c7.8-17.2,12.9-35.9,14.9-55.5
	l-128.1,27.2V285.1c-19.6,11-37.1,25.7-51.2,43v156.2l-51.2,10.9V259.5c-19.6,11-37.1,25.7-51.2,43v203.6l-114.6,24.4
	c-7.8,17.2-12.9,35.9-14.9,55.5l129.5-27.5v66L277.9,654c-7.8,17.2-12.9,35.9-14.9,55.5l145.3-30.9c11.8-2.5,22-9.5,28.6-19.1
	l26.6-39.5l0,0c2.8-4.1,4.4-9,4.4-14.3v-58.1l51.2-10.9v104.7L683.5,606.5L683.5,606.5L683.5,606.5z"/>
</svg>
